PathFileType	4	(X/Y/Z)	C:\Users\WrightLab\Desktop\Jo\P2_Trial36.trc
DataRate	CameraRate	NumFrames	NumMarkers	Units	OrigDataRate	OrigDataStartFrame	OrigNumFrames
100.00	100.00	       17	19	mm	100.00	81	       641
Frame#	Time	Headset_Front			Headset_Back			Headset_Left			Headset_Right			Left_Shoulder			Right_Shoulder			Sternum			C7			Left Elbow			Right Elbow			Left Wrist			Right Wrist			Left ASIS			Right ASIS			S2			Left Knee			Right Knee			Left Ankle			Right Ankle			
		X1	Y1	Z1	X2	Y2	Z2	X3	Y3	Z3	X4	Y4	Z4	X5	Y5	Z5	X6	Y6	Z6	X7	Y7	Z7	X8	Y8	Z8	X9	Y9	Z9	X10	Y10	Z10	X11	Y11	Z11	X12	Y12	Z12	X13	Y13	Z13	X14	Y14	Z14	X15	Y15	Z15	X16	Y16	Z16	X17	Y17	Z17	X18	Y18	Z18	X19	Y19	Z19	

81	0.800	-459.97961	1411.09961	-921.64325	-345.79663	1398.87061	-1081.95764	-377.41177	1208.60046	-975.97009	-437.18607	1257.83862	-1053.10242	-538.31720	1276.32349	-1099.38599	-636.31891	1368.33008	-1218.19299							-247.46283	1136.22595	-1012.77039							-744.02826	827.30939	-1141.23975	-458.26642	975.23785	-1039.56714	-571.75616	936.59912	-1102.13745	-359.13394	899.85120	-1287.95483	-396.98026	430.70288	-952.71631				-509.17715	111.12849	-837.72656				
82	0.810	-459.98792	1410.90381	-910.96014	-348.93924	1397.61597	-1076.12622	-382.16388	1206.12939	-968.28503							-639.30029	1367.74402	-1208.82263							-252.21150	1133.65601	-1002.11877							-749.63226	829.22070	-1135.89929	-463.84344	974.36462	-1032.24280	-577.16827	935.59125	-1095.06555	-362.65515	899.42554	-1280.76453	-401.85873	429.24503	-945.15942				-512.09454	105.22703	-834.08148				
83	0.820	-462.71231	1410.39453	-902.31622	-351.53000	1395.87439	-1068.60779	-386.08066	1203.94812	-958.91656							-641.85419	1367.92102	-1203.41101							-258.18942	1130.75305	-994.08398							-755.81885	830.52393	-1128.32178	-469.97510	971.83112	-1027.37805	-582.22937	934.28510	-1087.92566	-366.36096	897.68512	-1271.08386	-406.17532	425.18973	-937.90497				-519.37109	98.06565	-828.66321				
84	0.830	-466.65021	1408.99890	-897.98376	-354.94031	1393.02478	-1055.94824	-392.71042	1203.99158	-950.78754							-644.59833	1368.56165	-1195.62732							-263.19452	1128.78723	-985.58301							-762.40802	831.77368	-1121.18628	-474.92078	971.24420	-1015.53430	-587.07092	932.88910	-1081.06018	-370.08762	897.68372	-1263.90576	-410.28882	422.21317	-931.56580				-519.36230	94.58090	-828.17706				
85	0.840	-466.66306	1408.45508	-885.32397	-357.63748	1392.08423	-1048.73596	-397.28143	1201.65906	-941.41425	-466.25668	1291.44080	-967.11932	-518.16522	1285.63110	-1036.87866	-647.80121	1369.15430	-1187.67957	-488.76923	1235.63391	-1055.53699				-268.07684	1126.86719	-973.70343	-685.71704	824.74908	-1021.69843				-768.70270	831.79785	-1111.39758	-480.18820	970.81464	-1007.94977	-591.79834	932.80591	-1073.42920	-373.72430	897.09894	-1254.58276	-413.42676	421.33820	-926.98138	-523.00275	1298.79797	-989.78833	-521.44617	90.58025	-826.43982				
86	0.850	-469.70255	1408.28894	-876.92365	-360.35461	1391.30176	-1040.98108										-650.53088	1369.48938	-1179.71887							-273.25589	1124.52429	-965.74689							-774.95984	833.21582	-1104.37476	-485.77298	968.88593	-1000.88641	-597.17889	931.95367	-1064.97852	-377.52759	896.80200	-1245.23474	-416.59637	420.93738	-922.12378				-515.34247	93.16495	-832.16168				
87	0.860	-474.99081	1407.75171	-869.63208	-364.18723	1390.23645	-1029.78296										-653.89136	1370.86841	-1171.82678				-470.23438	1378.87097	-1209.14124	-279.07623	1121.74805	-958.53632							-780.69446	834.87860	-1097.65222	-490.19937	969.83801	-991.45648	-601.76410	932.60376	-1057.25488	-383.07114	895.05548	-1231.96387	-419.96072	421.28394	-912.90167				-517.73706	90.62786	-832.81787				
88	0.870	-478.26627	1407.39783	-863.21350	-367.37463	1390.47253	-1022.16211										-656.87872	1372.37878	-1162.72290				-473.39810	1379.97266	-1200.32300	-282.61594	1122.01929	-946.37494							-787.62195	834.95905	-1087.03589	-494.37360	970.98853	-981.89087	-605.72095	932.88849	-1048.51208	-387.49805	896.08936	-1222.17480	-423.44980	423.60556	-909.08734				-519.56927	89.71256	-832.42499				
89	0.880	-481.87082	1407.30444	-855.74298	-370.49664	1391.33618	-1015.64032	-599.55396	1481.29614	-908.56683	-489.65891	1266.26477	-997.28064	-508.94681	1264.06836	-984.71252	-660.45361	1374.82825	-1154.24707	-568.77783	1270.47791	-1034.41833	-476.87198	1381.25830	-1191.99280	-287.80515	1121.67517	-939.17365				-415.67877	1196.64233	-905.31873	-793.44006	836.98798	-1080.22363	-498.99741	972.25262	-974.45178	-610.17426	934.50531	-1039.56396	-392.02603	897.09888	-1213.47766	-428.15765	425.19064	-902.13464	-716.01099	759.46222	-911.63733	-520.31097	87.29276	-831.67981				
90	0.890	-484.37848	1407.54492	-844.98218	-373.99643	1391.74841	-1005.01135										-664.10687	1377.34668	-1145.63135				-480.27933	1383.12268	-1183.60486	-291.57346	1123.16040	-931.39063							-799.02228	839.39349	-1073.74280	-503.65900	974.22345	-964.46863	-614.64520	936.43896	-1031.09790	-396.80728	899.16583	-1206.00256	-433.27094	427.04108	-897.48730				-521.26398	85.49919	-831.87555				
91	0.900	-488.81265	1408.04932	-837.16028	-377.50827	1393.61121	-996.59943										-667.69971	1380.10559	-1137.25244				-483.70395	1385.26343	-1175.40918	-296.62512	1124.55420	-922.55029							-804.46454	841.80835	-1066.77087	-507.52350	977.39594	-956.01221	-618.26288	938.62305	-1021.96649	-401.13815	900.89160	-1197.88354	-438.05383	428.64517	-890.99969	-538.76727	1060.03711	-1429.62866	-521.90198	84.54241	-832.08978	-561.06226	482.21255	-1299.44324	
92	0.910				-380.93289	1395.56885	-988.55676							-428.27188	1200.15723	-878.05573	-670.75061	1383.00354	-1128.98743				-487.17337	1387.25024	-1166.98767	-301.03693	1126.03308	-915.45044							-809.72980	844.87299	-1060.98218	-511.21280	981.05414	-947.79877	-621.91510	940.73254	-1013.70355	-406.23392	902.62347	-1189.57642	-441.86591	429.24881	-884.66827				-521.84717	84.11746	-832.37512				
93	0.920	-548.50543	1536.54224	-612.66077	-384.87711	1398.24426	-980.85406	-317.67084	1352.23950	-797.70117				-432.69266	1202.51465	-869.60712	-673.86847	1385.61206	-1120.39746	-526.37823	1271.89905	-947.24664	-490.41910	1389.76477	-1158.53625	-303.72568	1127.79321	-906.76605	-744.48303	834.19348	-959.59009				-815.18005	847.66980	-1054.27454	-515.27380	983.46204	-938.38806	-626.02759	944.41254	-1004.82294	-411.33334	903.87842	-1180.17029	-447.31992	429.99847	-877.59021	-801.56818	830.30933	-924.73889	-522.29657	82.87335	-832.29364	-339.69174	320.13135	-774.02484	
94	0.930	-551.78656	1539.30579	-603.01776	-388.55899	1400.65759	-971.74097							-436.58545	1205.73120	-863.11469	-676.67706	1388.49670	-1112.30835				-493.68253	1391.76672	-1150.16113	-307.65604	1130.60046	-900.79492							-820.46460	850.72321	-1048.56030	-519.94122	986.14508	-930.71069	-630.90369	948.35260	-997.00482	-415.41992	906.40674	-1173.21497	-451.29636	430.59125	-871.15240				-522.09076	82.26344	-831.70837				
95	0.940	-555.04999	1541.36243	-591.78802	-392.12619	1402.35022	-962.73145							-439.53693	1210.16382	-855.13831	-679.95441	1391.49780	-1105.29639				-496.79379	1393.92017	-1142.41638	-311.45056	1132.85278	-893.13165	-768.34534	1070.05286	-1165.43237				-825.83270	853.76007	-1042.45630	-524.64606	989.61957	-924.09436	-635.00159	951.24847	-989.56213	-418.80624	908.60779	-1165.90466	-455.00571	431.38904	-864.49432	-580.73834	494.15601	-1260.31824	-520.92767	81.79063	-831.39258				
96	0.950	-558.25415	1543.54553	-582.07098	-396.20163	1405.23804	-955.98077							-440.90494	1212.26953	-846.48480	-682.48987	1394.14722	-1097.41663				-499.76852	1395.70947	-1133.69934	-315.57678	1134.33093	-886.56158	-771.81415	1073.97754	-1159.35620				-831.10278	857.17786	-1037.12329	-528.77185	992.51978	-914.32733	-639.33667	953.81146	-982.76526	-422.59158	909.77203	-1155.87390	-458.57147	432.01550	-858.89813				-520.64746	79.62073	-831.19629				
97	0.960				-399.75278	1407.47668	-947.58453				-634.34332	1492.32214	-845.08386	-444.06735	1214.11658	-838.34222	-685.78796	1396.69763	-1090.31165	-456.27945	1255.43982	-900.36237	-502.46817	1397.64197	-1125.40869	-319.75095	1137.13208	-879.94958							-836.63123	860.16949	-1031.55310	-534.76953	993.72278	-907.47833	-644.40192	956.69922	-975.91919	-424.34515	914.56146	-1153.53137	-462.18597	432.97086	-852.78894	-833.06696	834.79407	-907.50555	-519.74701	79.61629	-830.92828	-347.15576	350.52890	-746.44922	
